<svg width="109" height="42" viewBox="0 0 109 42" fill="none" xmlns="http://www.w3.org/2000/svg">
<path d="M4.2719 8.27997H13.1519V9.81597H4.2719V8.27997ZM4.4639 16.944H2.6879V0.143969H14.2079V1.67997H4.4639V16.944ZM25.0085 17.088C23.7445 17.088 22.5685 16.88 21.4805 16.464C20.4085 16.032 19.4725 15.432 18.6725 14.664C17.8885 13.88 17.2725 12.976 16.8245 11.952C16.3925 10.912 16.1765 9.77597 16.1765 8.54397C16.1765 7.31197 16.3925 6.18397 16.8245 5.15997C17.2725 4.11997 17.8885 3.21597 18.6725 2.44797C19.4725 1.66397 20.4085 1.06397 21.4805 0.647969C22.5525 0.215969 23.7285 -3.09944e-05 25.0085 -3.09944e-05C26.2725 -3.09944e-05 27.4405 0.215969 28.5125 0.647969C29.5845 1.06397 30.5125 1.65597 31.2965 2.42397C32.0965 3.19197 32.7125 4.09597 33.1445 5.13597C33.5925 6.17597 33.8165 7.31197 33.8165 8.54397C33.8165 9.77597 33.5925 10.912 33.1445 11.952C32.7125 12.992 32.0965 13.896 31.2965 14.664C30.5125 15.432 29.5845 16.032 28.5125 16.464C27.4405 16.88 26.2725 17.088 25.0085 17.088ZM25.0085 15.504C26.0165 15.504 26.9445 15.336 27.7925 15C28.6565 14.648 29.4005 14.16 30.0245 13.536C30.6645 12.896 31.1605 12.16 31.5125 11.328C31.8645 10.48 32.0405 9.55197 32.0405 8.54397C32.0405 7.53597 31.8645 6.61597 31.5125 5.78397C31.1605 4.93597 30.6645 4.19997 30.0245 3.57597C29.4005 2.93597 28.6565 2.44797 27.7925 2.11197C26.9445 1.75997 26.0165 1.58397 25.0085 1.58397C24.0005 1.58397 23.0645 1.75997 22.2005 2.11197C21.3365 2.44797 20.5845 2.93597 19.9445 3.57597C19.3205 4.19997 18.8245 4.93597 18.4565 5.78397C18.1045 6.61597 17.9285 7.53597 17.9285 8.54397C17.9285 9.53597 18.1045 10.456 18.4565 11.304C18.8245 12.152 19.3205 12.896 19.9445 13.536C20.5845 14.16 21.3365 14.648 22.2005 15C23.0645 15.336 24.0005 15.504 25.0085 15.504ZM37.7973 16.944V0.143969H44.0853C45.5093 0.143969 46.7333 0.375969 47.7573 0.83997C48.7813 1.28797 49.5653 1.94397 50.1093 2.80797C50.6693 3.65597 50.9493 4.68797 50.9493 5.90397C50.9493 7.08797 50.6693 8.11197 50.1093 8.97597C49.5653 9.82397 48.7813 10.48 47.7573 10.944C46.7333 11.392 45.5093 11.616 44.0853 11.616H38.7813L39.5733 10.8V16.944H37.7973ZM49.2693 16.944L44.9493 10.848H46.8693L51.2133 16.944H49.2693ZM39.5733 10.944L38.7813 10.104H44.0373C45.7173 10.104 46.9893 9.73597 47.8533 8.99997C48.7333 8.26397 49.1733 7.23197 49.1733 5.90397C49.1733 4.55997 48.7333 3.51997 47.8533 2.78397C46.9893 2.04797 45.7173 1.67997 44.0373 1.67997H38.7813L39.5733 0.83997V10.944ZM55.141 16.944V0.143969H56.605L64.285 13.248H63.517L71.125 0.143969H72.589V16.944H70.885V2.80797H71.293L64.285 14.808H63.445L56.389 2.80797H56.845V16.944H55.141ZM78.0629 16.944V0.143969H79.5269L87.2069 13.248H86.4389L94.0469 0.143969H95.5109V16.944H93.8069V2.80797H94.2149L87.2069 14.808H86.3669L79.3109 2.80797H79.7669V16.944H78.0629ZM107.074 17.064C106.722 17.064 106.418 16.936 106.162 16.68C105.922 16.424 105.802 16.112 105.802 15.744C105.802 15.36 105.922 15.048 106.162 14.808C106.418 14.568 106.722 14.448 107.074 14.448C107.426 14.448 107.722 14.568 107.962 14.808C108.218 15.048 108.346 15.36 108.346 15.744C108.346 16.112 108.218 16.424 107.962 16.68C107.722 16.936 107.426 17.064 107.074 17.064ZM-9.57008e-05 40.944L7.6799 24.144H9.4319L17.1119 40.944H15.2399L8.1839 25.176H8.9039L1.8479 40.944H-9.57008e-05ZM3.0239 36.456L3.5519 35.016H13.3199L13.8479 36.456H3.0239ZM27.0247 41.088C25.7447 41.088 24.5607 40.88 23.4727 40.464C22.4007 40.032 21.4647 39.432 20.6647 38.664C19.8807 37.896 19.2647 36.992 18.8167 35.952C18.3847 34.912 18.1687 33.776 18.1687 32.544C18.1687 31.312 18.3847 30.176 18.8167 29.136C19.2647 28.096 19.8887 27.192 20.6887 26.424C21.4887 25.656 22.4247 25.064 23.4967 24.648C24.5847 24.216 25.7687 24 27.0487 24C28.3287 24 29.4967 24.2 30.5527 24.6C31.6247 25 32.5367 25.608 33.2887 26.424L32.1847 27.552C31.4807 26.848 30.7047 26.344 29.8567 26.04C29.0087 25.736 28.0967 25.584 27.1207 25.584C26.0807 25.584 25.1207 25.76 24.2407 26.112C23.3767 26.448 22.6167 26.936 21.9607 27.576C21.3207 28.2 20.8167 28.936 20.4487 29.784C20.0967 30.616 19.9207 31.536 19.9207 32.544C19.9207 33.536 20.0967 34.456 20.4487 35.304C20.8167 36.152 21.3207 36.896 21.9607 37.536C22.6167 38.16 23.3767 38.648 24.2407 39C25.1207 39.336 26.0727 39.504 27.0967 39.504C28.0567 39.504 28.9607 39.36 29.8087 39.072C30.6727 38.784 31.4647 38.296 32.1847 37.608L33.1927 38.952C32.3927 39.656 31.4567 40.192 30.3847 40.56C29.3127 40.912 28.1927 41.088 27.0247 41.088ZM31.4887 38.736V32.544H33.1927V38.952L31.4887 38.736ZM39.8032 31.656H48.6832V33.168H39.8032V31.656ZM39.9952 39.408H50.0992V40.944H38.2192V24.144H49.7392V25.68H39.9952V39.408ZM54.2738 40.944V24.144H55.7378L67.3298 38.736H66.5618V24.144H68.3138V40.944H66.8498L55.2818 26.352H56.0498V40.944H54.2738ZM81.0933 41.088C79.8293 41.088 78.6613 40.88 77.5893 40.464C76.5173 40.032 75.5893 39.432 74.8053 38.664C74.0213 37.896 73.4053 36.992 72.9573 35.952C72.5253 34.912 72.3093 33.776 72.3093 32.544C72.3093 31.312 72.5253 30.176 72.9573 29.136C73.4053 28.096 74.0213 27.192 74.8053 26.424C75.6053 25.656 76.5413 25.064 77.6133 24.648C78.6853 24.216 79.8533 24 81.1173 24C82.3333 24 83.4773 24.208 84.5493 24.624C85.6213 25.024 86.5253 25.632 87.2613 26.448L86.1333 27.576C85.4453 26.872 84.6853 26.368 83.8533 26.064C83.0213 25.744 82.1253 25.584 81.1653 25.584C80.1573 25.584 79.2213 25.76 78.3573 26.112C77.4933 26.448 76.7413 26.936 76.1013 27.576C75.4613 28.2 74.9573 28.936 74.5893 29.784C74.2373 30.616 74.0613 31.536 74.0613 32.544C74.0613 33.552 74.2373 34.48 74.5893 35.328C74.9573 36.16 75.4613 36.896 76.1013 37.536C76.7413 38.16 77.4933 38.648 78.3573 39C79.2213 39.336 80.1573 39.504 81.1653 39.504C82.1253 39.504 83.0213 39.344 83.8533 39.024C84.6853 38.704 85.4453 38.192 86.1333 37.488L87.2613 38.616C86.5253 39.432 85.6213 40.048 84.5493 40.464C83.4773 40.88 82.3253 41.088 81.0933 41.088ZM94.7037 40.944V34.704L95.1117 35.808L87.9837 24.144H89.8797L96.1437 34.392H95.1357L101.4 24.144H103.176L96.0477 35.808L96.4557 34.704V40.944H94.7037Z" fill="white"/>
</svg>
